<svg width="111" height="26" viewBox="0 0 111 26" fill="none" xmlns="http://www.w3.org/2000/svg">
<path d="M73.4749 0.994995H71.0703V24.9484H73.4749V0.994995Z" fill="#231815"/>
<path d="M35.9154 22.7845C39.0969 22.7475 41.9084 22.692 44.572 20.5833C46.9765 18.6967 47.6794 15.9776 47.7164 12.9256C47.6794 9.81817 47.0135 7.28411 44.5535 5.34194C41.9269 3.30728 39.0969 3.14081 35.9339 3.1778H32.8265V22.7845H35.9154ZM30.4219 0.995178H36.8773C40.3177 1.03217 43.5361 1.56858 46.2737 3.7882C48.9927 6.02632 50.1025 9.46673 50.1025 12.9256C50.1025 16.3661 49.1962 19.5845 46.7361 21.8411C43.8876 24.4307 40.7431 24.9486 37.0437 24.9486H30.4219V0.995178Z" fill="#231815"/>
<path d="M53.9844 0.994812H66.2108V3.17744H56.389V11.797H66.1738V13.9796H56.389V22.7841H66.2108V24.9667H53.9844V0.994812Z" fill="#231815"/>
<path d="M83.0727 0.994995L73.5469 12.87L83.0912 24.9669H86.1432L76.5064 12.87L86.1432 1.01349H83.0727V0.994995Z" fill="#231815"/>
<path d="M91.4659 20.0845C89.5607 18.1979 88.5249 15.6638 88.5249 13.0003C88.5249 10.3182 89.5607 7.80264 91.4659 5.89746C93.3526 3.99229 95.8866 2.95646 98.5687 2.95646C101.251 2.95646 103.766 3.99229 105.671 5.89746C107.558 7.78414 108.612 10.3182 108.612 13.0003C108.612 15.6823 107.577 18.1979 105.671 20.0845C103.766 21.9897 101.251 23.0255 98.5687 23.0255C95.8866 23.0255 93.3711 21.9897 91.4659 20.0845ZM107.355 21.7678C109.704 19.4187 110.999 16.3112 110.999 13.0003C110.999 9.68932 109.704 6.56335 107.355 4.21425C105.006 1.86515 101.898 0.588867 98.5872 0.588867C95.2762 0.588867 92.1503 1.88365 89.8012 4.21425C87.4521 6.56335 86.1758 9.67082 86.1758 13.0003C86.1758 16.3112 87.4706 19.4372 89.8012 21.7678C92.1503 24.1169 95.2577 25.4116 98.5872 25.4116C101.88 25.4116 105.006 24.1169 107.355 21.7678Z" fill="#231815"/>
<path d="M16.8919 8.11555H7.625V0.975769H24.0317L16.8919 8.11555Z" fill="#CE0037"/>
<path d="M16.9062 17.8449V8.55951H24.0275V24.9847L16.9062 17.8449Z" fill="#CE0037"/>
<path d="M7.13978 17.8461L0 24.9859H16.4067V17.8461H7.13978Z" fill="#CE0037"/>
<path d="M0 17.3825H7.13978V8.11555L0 0.975769V17.3825Z" fill="#CE0037"/>
</svg>
