<svg width="34" height="34" viewBox="0 0 34 34" fill="none" xmlns="http://www.w3.org/2000/svg">
<circle cx="17.1348" cy="16.8653" r="16.8653" fill="#777777"/>
<path d="M13.3319 14.6864H10.4297V23.9413H13.3319V14.6864Z" fill="white"/>
<path d="M21.1767 14.4858C21.0697 14.4724 20.9561 14.4657 20.8424 14.4591C19.2174 14.3922 18.3013 15.3551 17.9803 15.7697C17.8934 15.8834 17.8533 15.9503 17.8533 15.9503V14.7132H15.0781V23.9681H17.8533H17.9803C17.9803 23.0252 17.9803 22.089 17.9803 21.1461C17.9803 20.6379 17.9803 20.1297 17.9803 19.6215C17.9803 18.9929 17.9335 18.3242 18.2478 17.7491C18.5153 17.2676 18.9967 17.0269 19.5384 17.0269C21.1433 17.0269 21.1767 18.478 21.1767 18.6117C21.1767 18.6184 21.1767 18.6251 21.1767 18.6251V24.0082H24.0789V17.9698C24.0789 15.9035 23.0291 14.6864 21.1767 14.4858Z" fill="white"/>
<path d="M11.8765 13.4894C12.8072 13.4894 13.5617 12.735 13.5617 11.8043C13.5617 10.8736 12.8072 10.1191 11.8765 10.1191C10.9459 10.1191 10.1914 10.8736 10.1914 11.8043C10.1914 12.735 10.9459 13.4894 11.8765 13.4894Z" fill="white"/>
</svg>
