<svg width="93" height="21" viewBox="0 0 93 21" fill="none" xmlns="http://www.w3.org/2000/svg">
<path d="M61.5576 0.339844H59.543V20.4089H61.5576V0.339844Z" fill="#231815"/>
<path d="M30.0949 18.5957C32.7604 18.5647 35.116 18.5182 37.3476 16.7515C39.3623 15.1708 39.9512 12.8927 39.9822 10.3356C39.9512 7.73206 39.3933 5.60893 37.3321 3.98171C35.1315 2.27701 32.7604 2.13753 30.1104 2.16852H27.5068V18.5957H30.0949ZM25.4922 0.339844H30.9007C33.7832 0.370838 36.4798 0.820259 38.7734 2.67994C41.0515 4.55511 41.9813 7.43761 41.9813 10.3356C41.9813 13.2181 41.222 15.9146 39.1608 17.8053C36.7742 19.9749 34.1397 20.4089 31.0402 20.4089H25.4922V0.339844Z" fill="#231815"/>
<path d="M45.2344 0.339844H55.4781V2.16852H47.249V9.39027H55.4471V11.219H47.249V18.5957H55.4781V20.4244H45.2344V0.339844Z" fill="#231815"/>
<path d="M69.5983 0.339844L61.6172 10.2891L69.6138 20.4244H72.1709L64.0968 10.2891L72.1709 0.35534H69.5983V0.339844Z" fill="#231815"/>
<path d="M76.6354 16.3342C75.0391 14.7534 74.1713 12.6303 74.1713 10.3987C74.1713 8.15159 75.0391 6.04395 76.6354 4.44773C78.2161 2.85151 80.3392 1.98366 82.5863 1.98366C84.8334 1.98366 86.9411 2.85151 88.5373 4.44773C90.118 6.02846 91.0014 8.15159 91.0014 10.3987C91.0014 12.6458 90.1335 14.7534 88.5373 16.3342C86.9411 17.9304 84.8334 18.7982 82.5863 18.7982C80.3392 18.7982 78.2316 17.9304 76.6354 16.3342ZM89.9475 17.7444C91.9157 15.7763 93.0005 13.1727 93.0005 10.3987C93.0005 7.62468 91.9157 5.00563 89.9475 3.03747C87.9794 1.06932 85.3758 0 82.6018 0C79.8278 0 77.2088 1.08481 75.2406 3.03747C73.2724 5.00563 72.2031 7.60918 72.2031 10.3987C72.2031 13.1727 73.2879 15.7918 75.2406 17.7444C77.2088 19.7126 79.8123 20.7974 82.6018 20.7974C85.3603 20.7974 87.9794 19.7126 89.9475 17.7444Z" fill="#231815"/>
<path d="M14.1509 6.30618H6.38672V0.324219H20.1328L14.1509 6.30618Z" fill="#111111"/>
<path d="M14.1641 14.4574V6.67773H20.1305V20.4393L14.1641 14.4574Z" fill="#111111"/>
<path d="M5.98196 14.459L0 20.4409H13.7461V14.459H5.98196Z" fill="#111111"/>
<path d="M0 14.0703H5.98196V6.30618L0 0.324219V14.0703Z" fill="#111111"/>
</svg>
