<svg width="111" height="47" viewBox="0 0 111 47" fill="none" xmlns="http://www.w3.org/2000/svg">
<path d="M109.84 31.0901H103.898V46.5979H101.441V31.0901H95.5V28.8066H109.84V31.0901Z" fill="black"/>
<path d="M94.4708 46.5979L92.5405 41.6294H84.6687L82.7885 46.5979H80.1562L87.2258 28.8066H90.0586L97.1281 46.5979H94.4708ZM88.5795 31.3662L85.5461 39.3459H91.663L88.5795 31.3662Z" fill="black"/>
<path d="M78.9025 46.5979H68.0977V28.8066H78.9025V31.0901H70.5544V36.5605H78.1254V38.8691H70.5544V44.3144H78.9025V46.5979Z" fill="black"/>
<path d="M62.2785 46.5979L58.2173 39.3208H55.56V46.5979H53.0781V28.8066H59.7716C63.1309 28.8066 65.2117 31.1654 65.2117 34.1014C65.2117 36.6609 63.5821 38.6433 60.8997 39.1451L65.1364 46.5979H62.2785ZM55.56 37.1126H59.3204C61.3259 37.1126 62.6797 35.9332 62.6797 34.1014C62.6797 32.2193 61.3259 31.0149 59.3204 31.0149H55.56V37.1126Z" fill="black"/>
<path d="M49.8019 46.5973H47.8214L47.5958 44.088C46.8187 45.4932 44.8883 46.9737 41.9051 46.9737C37.4427 46.9737 33.2812 43.7116 33.2812 37.6892C33.2812 31.6667 37.6934 28.4297 42.0806 28.4297C45.9412 28.4297 48.9245 30.5877 49.9523 33.7997L47.7211 34.7532C46.9189 32.1937 44.8382 30.6881 42.0806 30.6881C38.8968 30.6881 35.7882 32.9716 35.7882 37.6892C35.7882 42.4067 38.7965 44.7404 41.9803 44.7404C45.9412 44.7404 47.3702 41.93 47.4705 40.0981H41.3034V37.8899H49.8019V46.5973Z" fill="black"/>
<path d="M25.383 46.5979H14.5781V28.8066H25.383V31.0901H17.0349V36.5605H24.6058V38.8691H17.0349V44.3144H25.383V46.5979Z" fill="black"/>
<path d="M0 28.8066H5.791C9.17535 28.8066 11.1558 30.8141 11.1558 33.6246C11.1558 35.5317 10.0528 36.8867 8.49849 37.4639C10.5291 37.9657 11.7074 39.7725 11.7074 41.7549C11.7074 44.5653 9.47619 46.5979 6.21718 46.5979H0V28.8066ZM2.45679 36.5856H5.51524C7.49571 36.5856 8.67397 35.4062 8.67397 33.75C8.67397 32.0688 7.44558 30.9647 5.41496 30.9647H2.45679V36.5856ZM2.45679 44.4398H5.86621C7.84668 44.4398 9.20042 43.3357 9.20042 41.6043C9.20042 39.8979 8.12245 38.6935 5.96649 38.6935H2.45679V44.4398Z" fill="black"/>
<path d="M95.6593 10.0808C95.6593 14.723 98.7679 17.1069 102.077 17.1069C105.386 17.1069 108.495 14.723 108.495 10.0808C108.495 5.43848 105.386 3.0797 102.077 3.0797C98.7679 3.0797 95.6593 5.43848 95.6593 10.0808ZM93.1523 10.0808C93.1523 4.13362 97.6147 0.821289 102.077 0.821289C106.539 0.821289 111.002 4.13362 111.002 10.0808C111.002 16.0279 106.539 19.3653 102.077 19.3653C97.6147 19.3653 93.1523 16.0279 93.1523 10.0808Z" fill="black"/>
<path d="M92.4139 3.48077H86.4724V18.9885H84.0156V3.48077H78.0742V1.19727H92.4139V3.48077Z" fill="black"/>
<path d="M70.051 18.9885H59.2461V1.19727H70.051V3.48077H61.7029V8.95114H69.2738V11.2597H61.7029V16.705H70.051V18.9885Z" fill="black"/>
<path d="M43.6599 16.8054H47.295C50.579 16.8054 53.3366 14.5972 53.3366 10.1305C53.3366 5.6388 50.6292 3.38039 47.3451 3.38039H43.6599V16.8054ZM47.3702 18.9885H41.2031V1.19727H47.4203C51.9328 1.19727 55.8686 4.28376 55.8686 10.1305C55.8686 15.9522 51.8826 18.9885 47.3702 18.9885Z" fill="black"/>
<path d="M36.0333 18.9885L34.103 14.02H26.2312L24.351 18.9885H21.7188L28.7883 1.19727H31.6211L38.6907 18.9885H36.0333ZM30.142 3.7568L27.1086 11.7365H33.2255L30.142 3.7568Z" fill="black"/>
<path d="M19.2031 18.9885H16.7713V5.13693L10.7046 18.9885H8.44834L2.43172 5.13693V18.9885H0V1.19727H3.33421L9.60153 15.6762L15.919 1.19727H19.2031V18.9885Z" fill="black"/>
</svg>
