<svg width="166" height="88" viewBox="0 0 166 88" fill="none" xmlns="http://www.w3.org/2000/svg">
<path d="M158.22 1.7334L141.839 19.7966H128.95L139.911 1.7334H158.22ZM123.289 49.7814H149.788C149.548 43.8808 145.693 38.1006 136.539 38.1006C128.228 38.1006 123.65 44.3625 123.289 49.7814ZM151.354 65.1953L164.724 69.1692C161.713 79.405 152.318 87.9549 137.743 87.9549C121.482 87.9549 107.148 76.274 107.148 56.2841C107.148 37.378 121.121 25.0951 136.298 25.0951C154.607 25.0951 165.568 36.7759 165.568 55.8025C165.568 58.0905 165.327 60.4989 165.327 60.7397H122.928C123.289 68.5671 129.914 74.2269 137.864 74.2269C145.332 74.2269 149.427 70.4938 151.354 65.1953Z" fill="#111111"/>
<path d="M103.89 26.6598V42.7962C102.083 42.4349 100.517 42.3145 99.0714 42.3145C90.8807 42.3145 83.774 46.2884 83.774 59.0531V86.1478H67.7539V26.9006H83.2922V35.6914C86.9058 27.864 95.0965 26.4189 100.155 26.4189C101.48 26.4189 102.685 26.5394 103.89 26.6598Z" fill="#111111"/>
<path d="M70.7795 16.5447H43.7983V86.1481H27.0555V16.5447H0.0742188V0.769531H70.7795V16.5447Z" fill="#111111"/>
</svg>
